{
  "accessors": [
    {
      "bufferView": 2,
      "componentType": 5126,
      "count": 1302,
      "max": [
        0.074128799140453339,
        0.42592298984527588,
        -0.20075300335884094
      ],
      "min": [
        -0.064147703349590302,
        0.34425398707389832,
        -0.4880329966545105
      ],
      "type": "VEC3"
    },
    {
      "bufferView": 2,
      "byteOffset": 15624,
      "componentType": 5126,
      "count": 1302,
      "max": [
        0.99993389844894409,
        0.99999314546585083,
        0.99688076972961426
      ],
      "min": [
        -0.99993389844894409,
        -0.99902045726776123,
        -0.99794411659240723
      ],
      "type": "VEC3"
    },
    {
      "bufferView": 3,
      "componentType": 5126,
      "count": 1302,
      "max": [
        1,
        0.95230501890182495,
        0.98467999696731567,
        1
      ],
      "min": [
        -1,
        -0.99310600757598877,
        -0.99957001209259033,
        1
      ],
      "type": "VEC4"
    },
    {
      "bufferView": 1,
      "componentType": 5126,
      "count": 1302,
      "max": [
        0.82605201005935669,
        0.21757200360298157
      ],
      "min": [
        0.57656800746917725,
        0.011143900454044342
      ],
      "type": "VEC2"
    },
    {
      "bufferView": 0,
      "componentType": 5125,
      "count": 6672,
      "max": [
        1301
      ],
      "min": [
        0
      ],
      "type": "SCALAR"
    },
    {
      "bufferView": 2,
      "byteOffset": 31248,
      "componentType": 5126,
      "count": 65532,
      "max": [
        0.21594700217247009,
        0.57654100656509399,
        0.65621399879455566
      ],
      "min": [
        -0.20596599578857422,
        -0.40656998753547668,
        -0.93403398990631104
      ],
      "type": "VEC3"
    },
    {
      "bufferView": 2,
      "byteOffset": 817632,
      "componentType": 5126,
      "count": 65532,
      "max": [
        1,
        1,
        1
      ],
      "min": [
        -1,
        -1,
        -1
      ],
      "type": "VEC3"
    },
    {
      "bufferView": 3,
      "byteOffset": 20832,
      "componentType": 5126,
      "count": 65532,
      "max": [
        1,
        1,
        1,
        1
      ],
      "min": [
        -1,
        -1,
        -1,
        -1
      ],
      "type": "VEC4"
    },
    {
      "bufferView": 1,
      "byteOffset": 10416,
      "componentType": 5126,
      "count": 65532,
      "max": [
        0.99876600503921509,
        0.99427700042724609
      ],
      "min": [
        0.0030700899660587311,
        0.0084664402529597282
      ],
      "type": "VEC2"
    },
    {
      "bufferView": 0,
      "byteOffset": 26688,
      "componentType": 5125,
      "count": 355773,
      "max": [
        65531
      ],
      "min": [
        0
      ],
      "type": "SCALAR"
    },
    {
      "bufferView": 2,
      "byteOffset": 1604016,
      "componentType": 5126,
      "count": 41471,
      "max": [
        0.052806701511144638,
        0.58367401361465454,
        0.95609200000762939
      ],
      "min": [
        -0.21594700217247009,
        -0.54065901041030884,
        -1
      ],
      "type": "VEC3"
    },
    {
      "bufferView": 2,
      "byteOffset": 2101668,
      "componentType": 5126,
      "count": 41471,
      "max": [
        1,
        1,
        1
      ],
      "min": [
        -1,
        -1,
        -1
      ],
      "type": "VEC3"
    },
    {
      "bufferView": 3,
      "byteOffset": 1069344,
      "componentType": 5126,
      "count": 41471,
      "max": [
        1,
        1,
        1,
        1
      ],
      "min": [
        -1,
        -1,
        -1,
        -1
      ],
      "type": "VEC4"
    },
    {
      "bufferView": 1,
      "byteOffset": 534672,
      "componentType": 5126,
      "count": 41471,
      "max": [
        0.99898099899291992,
        0.99030697345733643
      ],
      "min": [
        0.0023227001074701548,
        0.0039076800458133221
      ],
      "type": "VEC2"
    },
    {
      "bufferView": 0,
      "byteOffset": 1449780,
      "componentType": 5125,
      "count": 195075,
      "max": [
        41470
      ],
      "min": [
        0
      ],
      "type": "SCALAR"
    },
    {
      "bufferView": 2,
      "byteOffset": 2599320,
      "componentType": 5126,
      "count": 10796,
      "max": [
        0.030409999191761017,
        0.16118599474430084,
        1
      ],
      "min": [
        -0.020839400589466095,
        -0.58367401361465454,
        -0.99441099166870117
      ],
      "type": "VEC3"
    },
    {
      "bufferView": 2,
      "byteOffset": 2728872,
      "componentType": 5126,
      "count": 10796,
      "max": [
        0.99675345420837402,
        1,
        1
      ],
      "min": [
        -0.99675345420837402,
        -1,
        -1
      ],
      "type": "VEC3"
    },
    {
      "bufferView": 3,
      "byteOffset": 1732880,
      "componentType": 5126,
      "count": 10796,
      "max": [
        0.50059902667999268,
        0.95992302894592285,
        0.86976301670074463,
        1
      ],
      "min": [
        -1,
        -0.87009698152542114,
        -0.86972999572753906,
        1
      ],
      "type": "VEC4"
    },
    {
      "bufferView": 1,
      "byteOffset": 866440,
      "componentType": 5126,
      "count": 10796,
      "max": [
        0.99987399578094482,
        0.94715201854705811
      ],
      "min": [
        0.00041028199484571815,
        0.00012605199299287051
      ],
      "type": "VEC2"
    },
    {
      "bufferView": 0,
      "byteOffset": 2230080,
      "componentType": 5125,
      "count": 55296,
      "max": [
        10795
      ],
      "min": [
        0
      ],
      "type": "SCALAR"
    }
  ],
  "asset": {
    "extras": {
      "author": "Javier Martín Hidalgo (https://sketchfab.com/Jj.Mmhh)",
      "license": "CC-BY-4.0 (http://creativecommons.org/licenses/by/4.0/)",
      "source": "https://sketchfab.com/models/5ebd3720da554fa2a60e0fa280c5ae7a",
      "title": "Dirt bicycle 3D Model"
    },
    "generator": "Sketchfab-3.19.4",
    "version": "2.0"
  },
  "bufferViews": [
    {
      "buffer": 0,
      "byteLength": 2451264,
      "byteOffset": 0,
      "name": "floatBufferViews",
      "target": 34963
    },
    {
      "buffer": 0,
      "byteLength": 952808,
      "byteOffset": 2451264,
      "byteStride": 8,
      "name": "floatBufferViews",
      "target": 34962
    },
    {
      "buffer": 0,
      "byteLength": 2858424,
      "byteOffset": 3404072,
      "byteStride": 12,
      "name": "floatBufferViews",
      "target": 34962
    },
    {
      "buffer": 0,
      "byteLength": 1905616,
      "byteOffset": 6262496,
      "byteStride": 16,
      "name": "floatBufferViews",
      "target": 34962
    }
  ],
  "buffers": [
    {
      "byteLength": 8168112,
      "uri": "scene.bin"
    }
  ],
  "images": [
    {
      "uri": "textures/rueda_001_metallicRoughness.png"
    },
    {
      "uri": "textures/rueda_001_normal.jpeg"
    },
    {
      "uri": "textures/rueda_001_baseColor.jpeg"
    },
    {
      "uri": "textures/asiento_metallicRoughness.png"
    },
    {
      "uri": "textures/asiento_normal.jpeg"
    },
    {
      "uri": "textures/asiento_baseColor.jpeg"
    },
    {
      "uri": "textures/base_metallicRoughness.png"
    },
    {
      "uri": "textures/base_normal.jpeg"
    },
    {
      "uri": "textures/base_baseColor.jpeg"
    }
  ],
  "materials": [
    {
      "doubleSided": true,
      "emissiveFactor": [
        0,
        0,
        0
      ],
      "name": "rueda_001",
      "normalTexture": {
        "index": 1,
        "scale": 1,
        "texCoord": 0
      },
      "occlusionTexture": {
        "index": 0,
        "strength": 1,
        "texCoord": 0
      },
      "pbrMetallicRoughness": {
        "baseColorFactor": [
          1,
          1,
          1,
          1
        ],
        "baseColorTexture": {
          "index": 2,
          "texCoord": 0
        },
        "metallicFactor": 1,
        "metallicRoughnessTexture": {
          "index": 0,
          "texCoord": 0
        },
        "roughnessFactor": 1
      }
    },
    {
      "doubleSided": true,
      "emissiveFactor": [
        0,
        0,
        0
      ],
      "name": "base",
      "normalTexture": {
        "index": 7,
        "scale": 1,
        "texCoord": 0
      },
      "occlusionTexture": {
        "index": 6,
        "strength": 1,
        "texCoord": 0
      },
      "pbrMetallicRoughness": {
        "baseColorFactor": [
          1,
          1,
          1,
          1
        ],
        "baseColorTexture": {
          "index": 8,
          "texCoord": 0
        },
        "metallicFactor": 1,
        "metallicRoughnessTexture": {
          "index": 6,
          "texCoord": 0
        },
        "roughnessFactor": 1
      }
    },
    {
      "doubleSided": true,
      "emissiveFactor": [
        0,
        0,
        0
      ],
      "name": "asiento",
      "normalTexture": {
        "index": 4,
        "scale": 1,
        "texCoord": 0
      },
      "occlusionTexture": {
        "index": 3,
        "strength": 1,
        "texCoord": 0
      },
      "pbrMetallicRoughness": {
        "baseColorFactor": [
          1,
          1,
          1,
          1
        ],
        "baseColorTexture": {
          "index": 5,
          "texCoord": 0
        },
        "metallicFactor": 1,
        "metallicRoughnessTexture": {
          "index": 3,
          "texCoord": 0
        },
        "roughnessFactor": 1
      }
    }
  ],
  "meshes": [
    {
      "name": "defaultMaterial",
      "primitives": [
        {
          "attributes": {
            "NORMAL": 1,
            "POSITION": 0,
            "TANGENT": 2,
            "TEXCOORD_0": 3
          },
          "indices": 4,
          "material": 2,
          "mode": 4
        }
      ]
    },
    {
      "name": "defaultMaterial",
      "primitives": [
        {
          "attributes": {
            "NORMAL": 6,
            "POSITION": 5,
            "TANGENT": 7,
            "TEXCOORD_0": 8
          },
          "indices": 9,
          "material": 1,
          "mode": 4
        }
      ]
    },
    {
      "name": "defaultMaterial",
      "primitives": [
        {
          "attributes": {
            "NORMAL": 11,
            "POSITION": 10,
            "TANGENT": 12,
            "TEXCOORD_0": 13
          },
          "indices": 14,
          "material": 1,
          "mode": 4
        }
      ]
    },
    {
      "name": "defaultMaterial",
      "primitives": [
        {
          "attributes": {
            "NORMAL": 16,
            "POSITION": 15,
            "TANGENT": 17,
            "TEXCOORD_0": 18
          },
          "indices": 19,
          "material": 0,
          "mode": 4
        }
      ]
    }
  ],
  "nodes": [
    {
      "children": [
        1
      ],
      "name": "RootNode (gltf orientation matrix)",
      "rotation": [
        -0.70710678118654746,
        -0,
        -0,
        0.70710678118654757
      ]
    },
    {
      "children": [
        2
      ],
      "name": "RootNode (model correction matrix)"
    },
    {
      "children": [
        3,
        5,
        8
      ],
      "matrix": [
        1,
        0,
        0,
        0,
        0,
        -4.3711390063094768e-08,
        0.999999999999999,
        0,
        0,
        -0.999999999999999,
        -4.3711390063094768e-08,
        0,
        0,
        0,
        0,
        1
      ],
      "name": "Collada visual scene group"
    },
    {
      "children": [
        4
      ],
      "name": "bicicleta"
    },
    {
      "mesh": 0,
      "name": "defaultMaterial"
    },
    {
      "children": [
        6,
        7
      ],
      "name": "bicicleta"
    },
    {
      "mesh": 1,
      "name": "defaultMaterial"
    },
    {
      "mesh": 2,
      "name": "defaultMaterial"
    },
    {
      "children": [
        9
      ],
      "name": "rueda"
    },
    {
      "mesh": 3,
      "name": "defaultMaterial"
    }
  ],
  "samplers": [
    {
      "magFilter": 9729,
      "minFilter": 9987,
      "wrapS": 10497,
      "wrapT": 10497
    }
  ],
  "scene": 0,
  "scenes": [
    {
      "name": "OSG_Scene",
      "nodes": [
        0
      ]
    }
  ],
  "textures": [
    {
      "sampler": 0,
      "source": 0
    },
    {
      "sampler": 0,
      "source": 1
    },
    {
      "sampler": 0,
      "source": 2
    },
    {
      "sampler": 0,
      "source": 3
    },
    {
      "sampler": 0,
      "source": 4
    },
    {
      "sampler": 0,
      "source": 5
    },
    {
      "sampler": 0,
      "source": 6
    },
    {
      "sampler": 0,
      "source": 7
    },
    {
      "sampler": 0,
      "source": 8
    }
  ]
}

