{
  "accessors": [
    {
      "bufferView": 2,
      "componentType": 5126,
      "count": 262,
      "max": [
        46.986156463623047,
        91.211174011230469,
        34.03265380859375
      ],
      "min": [
        -46.970481872558594,
        -43.299789428710938,
        -37.969463348388672
      ],
      "type": "VEC3"
    },
    {
      "bufferView": 2,
      "byteOffset": 3144,
      "componentType": 5126,
      "count": 262,
      "max": [
        0.96974200010299683,
        0.96510636806488037,
        0.99766826629638672
      ],
      "min": [
        -0.98029148578643799,
        -0.96349549293518066,
        -0.99562788009643555
      ],
      "type": "VEC3"
    },
    {
      "bufferView": 3,
      "componentType": 5126,
      "count": 262,
      "max": [
        0.98903638124465942,
        0.99831759929656982,
        0.99112248420715332,
        1
      ],
      "min": [
        -0.99757081270217896,
        -0.98908329010009766,
        -0.98672294616699219,
        -1
      ],
      "type": "VEC4"
    },
    {
      "bufferView": 1,
      "componentType": 5126,
      "count": 262,
      "max": [
        0.99564683437347412,
        0.9931601881980896
      ],
      "min": [
        0.0081834197044372559,
        0.0059421360492706299
      ],
      "type": "VEC2"
    },
    {
      "bufferView": 0,
      "componentType": 5125,
      "count": 1020,
      "max": [
        261
      ],
      "min": [
        0
      ],
      "type": "SCALAR"
    },
    {
      "bufferView": 2,
      "byteOffset": 6288,
      "componentType": 5126,
      "count": 158,
      "max": [
        54.319942474365234,
        238.37069702148438,
        22.929924011230469
      ],
      "min": [
        -61.930030822753906,
        -9.2811765670776367,
        -93.320053100585938
      ],
      "type": "VEC3"
    },
    {
      "bufferView": 2,
      "byteOffset": 8184,
      "componentType": 5126,
      "count": 158,
      "max": [
        1,
        0.76574099063873291,
        1
      ],
      "min": [
        -1,
        -0.630260169506073,
        -1
      ],
      "type": "VEC3"
    },
    {
      "bufferView": 3,
      "byteOffset": 4192,
      "componentType": 5126,
      "count": 158,
      "max": [
        1,
        1,
        1,
        1
      ],
      "min": [
        -1,
        -1,
        -1,
        1
      ],
      "type": "VEC4"
    },
    {
      "bufferView": 1,
      "byteOffset": 2096,
      "componentType": 5126,
      "count": 158,
      "max": [
        0.98980468511581421,
        0.99501872062683105
      ],
      "min": [
        0.0017936825752258301,
        0.18484419584274292
      ],
      "type": "VEC2"
    },
    {
      "bufferView": 0,
      "byteOffset": 4080,
      "componentType": 5125,
      "count": 366,
      "max": [
        157
      ],
      "min": [
        0
      ],
      "type": "SCALAR"
    }
  ],
  "asset": {
    "extras": {
      "author": "Rysky (https://sketchfab.com/Rysky)",
      "license": "CC-BY-4.0 (http://creativecommons.org/licenses/by/4.0/)",
      "source": "https://sketchfab.com/3d-models/low-poly-skeleton-in-cage-c94f2b1b521b42c6ae778499d7086604",
      "title": "Low Poly Skeleton in Cage"
    },
    "generator": "Sketchfab-4.92.0",
    "version": "2.0"
  },
  "bufferViews": [
    {
      "buffer": 0,
      "byteLength": 5544,
      "byteOffset": 0,
      "name": "floatBufferViews",
      "target": 34963
    },
    {
      "buffer": 0,
      "byteLength": 3360,
      "byteOffset": 5544,
      "byteStride": 8,
      "name": "floatBufferViews",
      "target": 34962
    },
    {
      "buffer": 0,
      "byteLength": 10080,
      "byteOffset": 8904,
      "byteStride": 12,
      "name": "floatBufferViews",
      "target": 34962
    },
    {
      "buffer": 0,
      "byteLength": 6720,
      "byteOffset": 18984,
      "byteStride": 16,
      "name": "floatBufferViews",
      "target": 34962
    }
  ],
  "buffers": [
    {
      "byteLength": 25704,
      "uri": "scene.bin"
    }
  ],
  "images": [
    {
      "uri": "textures/Material.001_baseColor.png"
    },
    {
      "uri": "textures/Circle.002__0_baseColor.png"
    }
  ],
  "materials": [
    {
      "doubleSided": true,
      "name": "Circle.002__0",
      "pbrMetallicRoughness": {
        "baseColorFactor": [
          1,
          1,
          1,
          1
        ],
        "baseColorTexture": {
          "index": 1,
          "texCoord": 0
        },
        "metallicFactor": 0,
        "roughnessFactor": 0
      }
    },
    {
      "doubleSided": true,
      "emissiveFactor": [
        0,
        0,
        0
      ],
      "name": "Material.001",
      "pbrMetallicRoughness": {
        "baseColorFactor": [
          1,
          1,
          1,
          1
        ],
        "baseColorTexture": {
          "index": 0,
          "texCoord": 0
        },
        "metallicFactor": 0,
        "roughnessFactor": 0.82394172570000002
      }
    }
  ],
  "meshes": [
    {
      "name": "TextureAtlas_mergedObject.005_Material.001_0",
      "primitives": [
        {
          "attributes": {
            "NORMAL": 1,
            "POSITION": 0,
            "TANGENT": 2,
            "TEXCOORD_0": 3
          },
          "indices": 4,
          "material": 1,
          "mode": 4
        }
      ]
    },
    {
      "name": "Circle.002__0",
      "primitives": [
        {
          "attributes": {
            "NORMAL": 6,
            "POSITION": 5,
            "TANGENT": 7,
            "TEXCOORD_0": 8
          },
          "indices": 9,
          "material": 0,
          "mode": 4
        }
      ]
    }
  ],
  "nodes": [
    {
      "children": [
        1
      ],
      "name": "RootNode (gltf orientation matrix)",
      "rotation": [
        -0.70710678118654746,
        -0,
        -0,
        0.70710678118654757
      ]
    },
    {
      "children": [
        2
      ],
      "name": "RootNode (model correction matrix)"
    },
    {
      "children": [
        3
      ],
      "matrix": [
        1,
        0,
        0,
        0,
        0,
        0,
        1,
        0,
        0,
        -1,
        0,
        0,
        0,
        0,
        0,
        1
      ],
      "name": "f534121965c9416a9a3cbb028ef53230.fbx"
    },
    {
      "children": [
        4,
        6
      ],
      "name": "RootNode"
    },
    {
      "children": [
        5
      ],
      "name": "TextureAtlas_mergedObject.005"
    },
    {
      "mesh": 0,
      "name": "TextureAtlas_mergedObject.005_Material.001_0"
    },
    {
      "children": [
        7
      ],
      "name": "Circle.002"
    },
    {
      "mesh": 1,
      "name": "Circle.002__0"
    }
  ],
  "samplers": [
    {
      "magFilter": 9728,
      "minFilter": 9728,
      "wrapS": 10497,
      "wrapT": 10497
    }
  ],
  "scene": 0,
  "scenes": [
    {
      "name": "OSG_Scene",
      "nodes": [
        0
      ]
    }
  ],
  "textures": [
    {
      "sampler": 0,
      "source": 0
    },
    {
      "sampler": 0,
      "source": 1
    }
  ]
}

